<svg width="122" height="27" viewBox="0 0 122 27" fill="none" xmlns="http://www.w3.org/2000/svg">
<rect width="122" height="27" fill="white"/>
<path d="M12.8583 6.90909L12.1996 10.8864H0.690341L1.36151 6.90909H12.8583ZM4.71733 2.33523H10.0121L7.05398 20.1335C6.97112 20.6224 6.98355 21.0036 7.09126 21.277C7.19898 21.5421 7.37713 21.7286 7.62571 21.8363C7.88258 21.944 8.18916 21.9979 8.54545 21.9979C8.79403 21.9979 9.04676 21.9772 9.30362 21.9357C9.56049 21.886 9.75521 21.8487 9.88778 21.8239L10.0866 25.7638C9.78835 25.855 9.38648 25.9544 8.88104 26.0621C8.38388 26.1699 7.79557 26.2362 7.11612 26.261C5.82351 26.3107 4.72976 26.1409 3.83487 25.7514C2.93999 25.3537 2.29782 24.7447 1.90838 23.9244C1.51894 23.104 1.43608 22.0724 1.6598 20.8295L4.71733 2.33523ZM13.1255 26L16.3074 6.90909H21.4405L20.8812 10.2401H21.0801C21.627 9.05516 22.3603 8.16027 23.28 7.5554C24.208 6.94223 25.2065 6.63565 26.2754 6.63565C26.5405 6.63565 26.8181 6.65222 27.1081 6.68537C27.4064 6.71023 27.6716 6.75166 27.9036 6.80966L27.1081 11.5202C26.8761 11.4374 26.5447 11.3711 26.1138 11.3214C25.6912 11.2634 25.2894 11.2344 24.9082 11.2344C24.1376 11.2344 23.4209 11.4042 22.758 11.744C22.0951 12.0754 21.5358 12.5394 21.0801 13.136C20.6326 13.7326 20.3385 14.4203 20.1976 15.1992L18.4203 26H13.1255ZM32.2941 26.3604C31.0844 26.3604 30.0362 26.1491 29.1496 25.7266C28.2713 25.2957 27.625 24.6577 27.2107 23.8125C26.7964 22.9673 26.6928 21.9192 26.8999 20.668C27.0822 19.6074 27.4261 18.7208 27.9316 18.0082C28.4453 17.2873 29.0709 16.7073 29.8083 16.2681C30.5458 15.829 31.3619 15.4934 32.2568 15.2614C33.16 15.0294 34.0922 14.8719 35.0534 14.7891C36.1637 14.6731 37.0669 14.5612 37.7629 14.4535C38.4672 14.3458 38.9933 14.1925 39.3414 13.9936C39.6894 13.7865 39.9007 13.4799 39.9752 13.0739V12.9993C40.0995 12.2204 39.9545 11.6155 39.5402 11.1847C39.1342 10.7455 38.4838 10.5259 37.5889 10.5259C36.6443 10.5259 35.8405 10.7331 35.1776 11.1474C34.5231 11.5617 34.0549 12.0878 33.7732 12.7259L28.9507 12.3281C29.3816 11.1681 30.032 10.1655 30.9021 9.32031C31.7804 8.46686 32.8369 7.81226 34.0715 7.35653C35.3061 6.89252 36.6898 6.66051 38.2227 6.66051C39.2834 6.66051 40.2735 6.7848 41.1933 7.03338C42.1213 7.28196 42.9209 7.66726 43.5921 8.18927C44.2715 8.71129 44.7604 9.38246 45.0587 10.2028C45.3653 11.0148 45.4274 11.9884 45.2451 13.1236L43.0949 26H38.0736L38.521 23.3526H38.3719C37.9659 23.9492 37.4687 24.4754 36.8804 24.9311C36.2921 25.3786 35.6168 25.7307 34.8545 25.9876C34.0922 26.2362 33.2387 26.3604 32.2941 26.3604ZM34.4195 22.7063C35.1901 22.7063 35.8985 22.553 36.5448 22.2464C37.1994 21.9316 37.738 21.509 38.1606 20.9787C38.5915 20.4484 38.8649 19.8477 38.9809 19.1765L39.3041 17.1506C39.1383 17.2583 38.8981 17.3536 38.5832 17.4364C38.2766 17.5193 37.941 17.598 37.5764 17.6726C37.2201 17.7389 36.8597 17.801 36.4951 17.859C36.1305 17.9087 35.8032 17.9585 35.5132 18.0082C34.8752 18.0993 34.3035 18.2443 33.798 18.4432C33.2926 18.642 32.8824 18.9113 32.5676 19.2511C32.2527 19.5825 32.058 19.9968 31.9834 20.494C31.8674 21.2148 32.0373 21.7659 32.493 22.147C32.957 22.5199 33.5992 22.7063 34.4195 22.7063ZM55.7787 26.3729C53.8149 26.3729 52.1991 25.9586 50.9314 25.13C49.6719 24.2931 48.7894 23.133 48.284 21.6499C47.7868 20.1667 47.6998 18.4598 48.023 16.5291C48.3379 14.5736 48.9966 12.8584 49.9992 11.3835C51.0018 9.90033 52.2737 8.74444 53.8149 7.91584C55.3644 7.07895 57.1044 6.66051 59.0351 6.66051C60.7006 6.66051 62.1092 6.96295 63.2609 7.56783C64.4127 8.1727 65.2578 9.02202 65.7964 10.1158C66.335 11.2095 66.5173 12.4938 66.3433 13.9688H61.3593C61.3676 13.0241 61.1231 12.2577 60.626 11.6694C60.1288 11.0811 59.3997 10.7869 58.4385 10.7869C57.6099 10.7869 56.8476 11.0107 56.1515 11.4581C55.4638 11.8973 54.8796 12.5394 54.3991 13.3846C53.9268 14.2298 53.5953 15.2531 53.4047 16.4545C53.2059 17.6726 53.2017 18.7083 53.3923 19.5618C53.5829 20.4152 53.9475 21.0657 54.4861 21.5131C55.0247 21.9606 55.7041 22.1843 56.5244 22.1843C57.1376 22.1843 57.7052 22.06 58.2272 21.8114C58.7575 21.5629 59.2215 21.2024 59.6192 20.7301C60.017 20.2495 60.3235 19.6737 60.539 19.0025H65.5354C65.1957 20.4691 64.5784 21.7534 63.6835 22.8555C62.7969 23.9575 61.6824 24.8192 60.3401 25.4407C58.9978 26.0621 57.4773 26.3729 55.7787 26.3729ZM73.4496 20.5064L74.506 14.1552H75.2766L82.6222 6.90909H88.6999L78.9059 16.5043H77.6381L73.4496 20.5064ZM67.7447 26L71.9705 0.545454H77.2653L73.0394 26H67.7447ZM79.6765 26L75.4506 17.685L79.5895 13.9439L85.8786 26H79.6765ZM88.1158 26L91.2976 6.90909H96.4308L95.8714 10.2401H96.0703C96.6172 9.05516 97.3505 8.16027 98.2702 7.5554C99.1983 6.94223 100.197 6.63565 101.266 6.63565C101.531 6.63565 101.808 6.65222 102.098 6.68537C102.397 6.71023 102.662 6.75166 102.894 6.80966L102.098 11.5202C101.866 11.4374 101.535 11.3711 101.104 11.3214C100.681 11.2634 100.28 11.2344 99.8984 11.2344C99.1278 11.2344 98.4111 11.4042 97.7482 11.744C97.0853 12.0754 96.526 12.5394 96.0703 13.136C95.6229 13.7326 95.3287 14.4203 95.1879 15.1992L93.4105 26H88.1158ZM102.437 26L105.619 6.90909H110.752L110.193 10.2401H110.392C110.938 9.05516 111.672 8.16027 112.592 7.5554C113.52 6.94223 114.518 6.63565 115.587 6.63565C115.852 6.63565 116.13 6.65222 116.42 6.68537C116.718 6.71023 116.983 6.75166 117.215 6.80966L116.42 11.5202C116.188 11.4374 115.856 11.3711 115.425 11.3214C115.003 11.2634 114.601 11.2344 114.22 11.2344C113.449 11.2344 112.732 11.4042 112.07 11.744C111.407 12.0754 110.847 12.5394 110.392 13.136C109.944 13.7326 109.65 14.4203 109.509 15.1992L107.732 26H102.437Z" fill="#4746E5"/>
<path d="M117.902 26.3232C117.065 26.3232 116.377 26.0331 115.839 25.4531C115.308 24.8731 115.068 24.1688 115.118 23.3402C115.176 22.5199 115.52 21.828 116.149 21.2646C116.787 20.6928 117.521 20.407 118.349 20.407C119.145 20.407 119.816 20.6928 120.363 21.2646C120.91 21.8363 121.15 22.5282 121.084 23.3402C121.042 23.8871 120.864 24.3884 120.549 24.8441C120.243 25.2915 119.853 25.652 119.381 25.9254C118.909 26.1906 118.416 26.3232 117.902 26.3232Z" fill="black"/>
</svg>
